# Blender 4.1.1
# www.blender.org
mtllib DArrow.mtl
o Plane
v -1.000000 -0.250000 0.500000
v 1.000000 -0.250000 0.500000
v 1.000000 -0.250000 -0.500000
v -1.000000 -0.250000 -0.500000
v 1.000000 -0.250000 -1.000000
v 1.000000 -0.250000 1.000000
v 2.000000 -0.250000 0.000000
v -1.000000 -0.250000 1.000000
v -1.000000 -0.250000 -1.000000
v -2.000000 -0.250000 0.000000
v -1.000000 0.150000 0.500000
v -1.100000 0.250000 0.400000
v 1.100000 0.250000 0.400000
v 1.000000 0.150000 0.500000
v -1.100000 0.250000 -0.400000
v -1.000000 0.150000 -0.500000
v 1.000000 0.150000 -0.500000
v 1.100000 0.250000 -0.400000
v 1.000000 0.150000 -1.000000
v 1.100000 0.250000 -0.758579
v 1.100000 0.250000 0.758579
v 1.000000 0.150000 1.000000
v 1.858579 0.250000 0.000000
v 2.000000 0.150000 0.000000
v -1.000000 0.150000 1.000000
v -1.100000 0.250000 0.758579
v -1.100000 0.250000 -0.758579
v -1.000000 0.150000 -1.000000
v -1.858579 0.250000 0.000000
v -2.000000 0.150000 0.000000
vn 1.0000 -0.0000 -0.0000
vn -0.0000 -1.0000 -0.0000
vn 0.7071 -0.0000 0.7071
vn 0.7071 -0.0000 -0.7071
vn -0.7071 -0.0000 -0.7071
vn -1.0000 -0.0000 -0.0000
vn -0.0000 -0.0000 -1.0000
vn -0.0000 1.0000 -0.0000
vn -0.7071 -0.0000 0.7071
vn -0.0000 0.7071 0.7071
vn -0.0000 0.7071 -0.7071
vn -0.7071 0.7071 -0.0000
vn 0.5000 0.7071 0.5000
vn 0.5000 0.7071 -0.5000
vn 0.7071 0.7071 -0.0000
vn -0.5000 0.7071 -0.5000
vn -0.5000 0.7071 0.5000
vn -0.0000 -0.0000 1.0000
vt 0.000000 0.000000
s 0
f 25/1/1 8/1/1 1/1/1 11/1/1
f 2/1/2 1/1/2 8/1/2 10/1/2 9/1/2 4/1/2 3/1/2 5/1/2 7/1/2 6/1/2
f 16/1/1 4/1/1 9/1/1 28/1/1
f 22/1/3 6/1/3 7/1/3 24/1/3
f 24/1/4 7/1/4 5/1/4 19/1/4
f 28/1/5 9/1/5 10/1/5 30/1/5
f 14/1/6 2/1/6 6/1/6 22/1/6
f 17/1/7 3/1/7 4/1/7 16/1/7
f 13/1/8 21/1/8 23/1/8 20/1/8 18/1/8 15/1/8 27/1/8 29/1/8 26/1/8 12/1/8
f 19/1/6 5/1/6 3/1/6 17/1/6
f 30/1/9 10/1/9 8/1/9 25/1/9
f 12/1/10 11/1/10 14/1/10 13/1/10
f 18/1/11 17/1/11 16/1/11 15/1/11
f 17/1/12 18/1/12 20/1/12 19/1/12
f 13/1/12 14/1/12 22/1/12 21/1/12
f 21/1/13 22/1/13 24/1/13 23/1/13
f 19/1/14 20/1/14 23/1/14 24/1/14
f 11/1/15 12/1/15 26/1/15 25/1/15
f 15/1/15 16/1/15 28/1/15 27/1/15
f 27/1/16 28/1/16 30/1/16 29/1/16
f 25/1/17 26/1/17 29/1/17 30/1/17
f 11/1/18 1/1/18 2/1/18 14/1/18
