<?xml version="1.0" encoding="UTF-8" standalone="no"?>
<svg
   xmlns:dc="http://purl.org/dc/elements/1.1/"
   xmlns:cc="http://creativecommons.org/ns#"
   xmlns:rdf="http://www.w3.org/1999/02/22-rdf-syntax-ns#"
   xmlns:svg="http://www.w3.org/2000/svg"
   xmlns="http://www.w3.org/2000/svg"
   xmlns:sodipodi="http://sodipodi.sourceforge.net/DTD/sodipodi-0.dtd"
   xmlns:inkscape="http://www.inkscape.org/namespaces/inkscape"
   viewBox="0.0 0.0 348.0 348.0"
   fill="none"
   version="1.1"
   id="svg6"
   sodipodi:docname="FoaboruObjToPath.svg"
   inkscape:version="0.92.4 (5da689c313, 2019-01-14)">
  <metadata
     id="metadata12">
    <rdf:RDF>
      <cc:Work
         rdf:about="">
        <dc:format>image/svg+xml</dc:format>
        <dc:type
           rdf:resource="http://purl.org/dc/dcmitype/StillImage" />
        <dc:title></dc:title>
      </cc:Work>
    </rdf:RDF>
  </metadata>
  <defs
     id="defs10" />
  <sodipodi:namedview
     pagecolor="#ffffff"
     bordercolor="#666666"
     borderopacity="1"
     objecttolerance="10"
     gridtolerance="10"
     guidetolerance="10"
     inkscape:pageopacity="0"
     inkscape:pageshadow="2"
     inkscape:window-width="1920"
     inkscape:window-height="1057"
     id="namedview8"
     showgrid="false"
     inkscape:zoom="2.7577352"
     inkscape:cx="142.12021"
     inkscape:cy="190.49754"
     inkscape:window-x="1912"
     inkscape:window-y="-8"
     inkscape:window-maximized="1"
     inkscape:current-layer="svg6"
     inkscape:snap-object-midpoints="true"
     inkscape:snap-smooth-nodes="true"
     inkscape:snap-bbox="true"
     inkscape:snap-bbox-midpoints="true" />
  <path
     d="M5.079 5.776h336.913v337.67H5.08z"
     id="path2"
     stroke-width="2"
     stroke="#000" />
  <path
     d="M282.734 40.554c0-8.376 6.966-15.165 15.56-15.165 4.126 0 8.084 1.597 11.001 4.441 2.918 2.844 4.558 6.702 4.558 10.724 0 8.376-6.966 15.165-15.56 15.165-8.593 0-15.559-6.79-15.559-15.165z"
     stroke-width="2"
     stroke="#000"
     id="path4" />
  <path
     style="fill:#000000;fill-opacity:1;fill-rule:nonzero;stroke:none;stroke-width:1.60528636;stroke-linecap:round;stroke-linejoin:round;stroke-miterlimit:4;stroke-dasharray:none;stroke-dashoffset:0;stroke-opacity:1"
     d="M 53.456182,103.18523 A 14.599259,14.599259 0 0 1 38.856922,117.78449 14.599259,14.599259 0 0 1 24.257663,103.18523 14.599259,14.599259 0 0 1 38.856922,88.585967 14.599259,14.599259 0 0 1 53.456182,103.18523 Z"
     id="path822" />
  <path
     style="fill:#000000;fill-opacity:1;fill-rule:nonzero;stroke:none;stroke-width:1.60528636;stroke-linecap:round;stroke-linejoin:round;stroke-miterlimit:4;stroke-dasharray:none;stroke-dashoffset:0;stroke-opacity:1"
     d="M 82.65471,103.18523 A 14.599259,14.599259 0 0 1 68.05545,117.78449 14.599259,14.599259 0 0 1 53.456191,103.18523 14.599259,14.599259 0 0 1 68.05545,88.585967 14.599259,14.599259 0 0 1 82.65471,103.18523 Z"
     id="circle814" />
  <path
     style="fill:#808080;fill-opacity:1;fill-rule:nonzero;stroke:#000000;stroke-width:1.60528636;stroke-linecap:round;stroke-linejoin:round;stroke-miterlimit:4;stroke-dasharray:none;stroke-dashoffset:0;stroke-opacity:1"
     d="M 111.85323,103.18523 A 14.599259,14.599259 0 0 1 97.253967,117.78449 14.599259,14.599259 0 0 1 82.654708,103.18523 14.599259,14.599259 0 0 1 97.253967,88.585967 14.599259,14.599259 0 0 1 111.85323,103.18523 Z"
     id="circle816" />
  <path
     style="fill:#808080;fill-opacity:1;fill-rule:nonzero;stroke:#000000;stroke-width:1.60528636;stroke-linecap:round;stroke-linejoin:round;stroke-miterlimit:4;stroke-dasharray:none;stroke-dashoffset:0;stroke-opacity:1"
     d="m 141.05173,103.18523 a 14.599259,14.599259 0 0 1 -14.59926,14.59926 14.599259,14.599259 0 0 1 -14.59926,-14.59926 14.599259,14.599259 0 0 1 14.59926,-14.599263 14.599259,14.599259 0 0 1 14.59926,14.599263 z"
     id="circle818" />
  <path
     style="fill:#808080;fill-opacity:1;fill-rule:nonzero;stroke:#000000;stroke-width:1.60528636;stroke-linecap:round;stroke-linejoin:round;stroke-miterlimit:4;stroke-dasharray:none;stroke-dashoffset:0;stroke-opacity:1"
     d="m 170.25028,103.18523 a 14.599259,14.599259 0 0 1 -14.59926,14.59926 14.599259,14.599259 0 0 1 -14.59926,-14.59926 14.599259,14.599259 0 0 1 14.59926,-14.599263 14.599259,14.599259 0 0 1 14.59926,14.599263 z"
     id="circle820" />
  <path
     style="fill:#000000;fill-opacity:1;fill-rule:nonzero;stroke:none;stroke-width:1.60528636;stroke-linecap:round;stroke-linejoin:round;stroke-miterlimit:4;stroke-dasharray:none;stroke-dashoffset:0;stroke-opacity:1"
     d="M 53.456182,132.38374 A 14.599259,14.599259 0 0 1 38.856922,146.983 14.599259,14.599259 0 0 1 24.257663,132.38374 14.599259,14.599259 0 0 1 38.856922,117.78448 14.599259,14.599259 0 0 1 53.456182,132.38374 Z"
     id="circle828" />
  <path
     style="fill:#000000;fill-opacity:1;fill-rule:nonzero;stroke:none;stroke-width:1.60528636;stroke-linecap:round;stroke-linejoin:round;stroke-miterlimit:4;stroke-dasharray:none;stroke-dashoffset:0;stroke-opacity:1"
     d="M 82.65471,132.38374 A 14.599259,14.599259 0 0 1 68.05545,146.983 14.599259,14.599259 0 0 1 53.456191,132.38374 14.599259,14.599259 0 0 1 68.05545,117.78448 14.599259,14.599259 0 0 1 82.65471,132.38374 Z"
     id="circle830" />
  <path
     style="fill:#808080;fill-opacity:1;fill-rule:nonzero;stroke:#000000;stroke-width:1.60528636;stroke-linecap:round;stroke-linejoin:round;stroke-miterlimit:4;stroke-dasharray:none;stroke-dashoffset:0;stroke-opacity:1"
     d="m 170.25028,132.38374 a 14.599259,14.599259 0 0 1 -14.59926,14.59926 14.599259,14.599259 0 0 1 -14.59926,-14.59926 14.599259,14.599259 0 0 1 14.59926,-14.59926 14.599259,14.599259 0 0 1 14.59926,14.59926 z"
     id="circle836" />
  <path
     style="fill:none;fill-opacity:1;fill-rule:nonzero;stroke:#000000;stroke-width:1.60528636;stroke-linecap:round;stroke-linejoin:round;stroke-miterlimit:4;stroke-dasharray:none;stroke-dashoffset:0;stroke-opacity:1"
     d="m 199.44878,132.38374 a 14.599259,14.599259 0 0 1 -14.59926,14.59926 14.599259,14.599259 0 0 1 -14.59926,-14.59926 14.599259,14.599259 0 0 1 14.59926,-14.59926 14.599259,14.599259 0 0 1 14.59926,14.59926 z"
     id="circle838" />
  <path
     style="fill:#808080;fill-opacity:1;fill-rule:nonzero;stroke:#000000;stroke-width:1.60528636;stroke-linecap:round;stroke-linejoin:round;stroke-miterlimit:4;stroke-dasharray:none;stroke-dashoffset:0;stroke-opacity:1"
     d="M 53.456182,161.58226 A 14.599259,14.599259 0 0 1 38.856922,176.18152 14.599259,14.599259 0 0 1 24.257663,161.58226 14.599259,14.599259 0 0 1 38.856922,146.983 14.599259,14.599259 0 0 1 53.456182,161.58226 Z"
     id="circle844" />
  <path
     style="fill:none;fill-opacity:1;fill-rule:nonzero;stroke:#000000;stroke-width:1.60528636;stroke-linecap:round;stroke-linejoin:round;stroke-miterlimit:4;stroke-dasharray:none;stroke-dashoffset:0;stroke-opacity:1"
     d="m 199.44878,161.58226 a 14.599259,14.599259 0 0 1 -14.59926,14.59926 14.599259,14.599259 0 0 1 -14.59926,-14.59926 14.599259,14.599259 0 0 1 14.59926,-14.59926 14.599259,14.599259 0 0 1 14.59926,14.59926 z"
     id="circle854" />
  <path
     style="fill:none;fill-opacity:1;fill-rule:nonzero;stroke:#000000;stroke-width:1.60528636;stroke-linecap:round;stroke-linejoin:round;stroke-miterlimit:4;stroke-dasharray:none;stroke-dashoffset:0;stroke-opacity:1"
     d="m 228.64731,161.58226 a 14.599259,14.599259 0 0 1 -14.59926,14.59926 14.599259,14.599259 0 0 1 -14.59926,-14.59926 14.599259,14.599259 0 0 1 14.59926,-14.59926 14.599259,14.599259 0 0 1 14.59926,14.59926 z"
     id="circle856" />
  <path
     style="fill:#808080;fill-opacity:1;fill-rule:nonzero;stroke:#000000;stroke-width:1.60528636;stroke-linecap:round;stroke-linejoin:round;stroke-miterlimit:4;stroke-dasharray:none;stroke-dashoffset:0;stroke-opacity:1"
     d="m 53.456182,190.78078 a 14.599259,14.599259 0 0 1 -14.59926,14.59926 14.599259,14.599259 0 0 1 -14.599259,-14.59926 14.599259,14.599259 0 0 1 14.599259,-14.59926 14.599259,14.599259 0 0 1 14.59926,14.59926 z"
     id="circle860" />
  <path
     style="fill:#808080;fill-opacity:1;fill-rule:nonzero;stroke:#000000;stroke-width:1.60528636;stroke-linecap:round;stroke-linejoin:round;stroke-miterlimit:4;stroke-dasharray:none;stroke-dashoffset:0;stroke-opacity:1"
     d="M 82.65471,190.78078 A 14.599259,14.599259 0 0 1 68.05545,205.38004 14.599259,14.599259 0 0 1 53.456191,190.78078 14.599259,14.599259 0 0 1 68.05545,176.18152 14.599259,14.599259 0 0 1 82.65471,190.78078 Z"
     id="circle862" />
  <path
     style="fill:#808080;fill-opacity:1;fill-rule:nonzero;stroke:#000000;stroke-width:1.60528636;stroke-linecap:round;stroke-linejoin:round;stroke-miterlimit:4;stroke-dasharray:none;stroke-dashoffset:0;stroke-opacity:1"
     d="M 111.85323,190.78078 A 14.599259,14.599259 0 0 1 97.253967,205.38004 14.599259,14.599259 0 0 1 82.654708,190.78078 14.599259,14.599259 0 0 1 97.253967,176.18152 14.599259,14.599259 0 0 1 111.85323,190.78078 Z"
     id="circle864" />
  <path
     style="fill:#000000;fill-opacity:1;fill-rule:nonzero;stroke:none;stroke-width:1.60528636;stroke-linecap:round;stroke-linejoin:round;stroke-miterlimit:4;stroke-dasharray:none;stroke-dashoffset:0;stroke-opacity:1"
     d="m 170.25028,190.78078 a 14.599259,14.599259 0 0 1 -14.59926,14.59926 14.599259,14.599259 0 0 1 -14.59926,-14.59926 14.599259,14.599259 0 0 1 14.59926,-14.59926 14.599259,14.599259 0 0 1 14.59926,14.59926 z"
     id="circle868" />
  <path
     style="fill:none;fill-opacity:1;fill-rule:nonzero;stroke:#000000;stroke-width:1.60528636;stroke-linecap:round;stroke-linejoin:round;stroke-miterlimit:4;stroke-dasharray:none;stroke-dashoffset:0;stroke-opacity:1"
     d="m 228.64731,190.78078 a 14.599259,14.599259 0 0 1 -14.59926,14.59926 14.599259,14.599259 0 0 1 -14.59926,-14.59926 14.599259,14.599259 0 0 1 14.59926,-14.59926 14.599259,14.599259 0 0 1 14.59926,14.59926 z"
     id="circle872" />
  <path
     style="fill:#000000;fill-opacity:1;fill-rule:nonzero;stroke:none;stroke-width:1.60528636;stroke-linecap:round;stroke-linejoin:round;stroke-miterlimit:4;stroke-dasharray:none;stroke-dashoffset:0;stroke-opacity:1"
     d="m 141.05173,219.97929 a 14.599259,14.599259 0 0 1 -14.59926,14.59926 14.599259,14.599259 0 0 1 -14.59926,-14.59926 14.599259,14.599259 0 0 1 14.59926,-14.59926 14.599259,14.599259 0 0 1 14.59926,14.59926 z"
     id="circle882" />
  <path
     style="fill:#000000;fill-opacity:1;fill-rule:nonzero;stroke:none;stroke-width:1.60528636;stroke-linecap:round;stroke-linejoin:round;stroke-miterlimit:4;stroke-dasharray:none;stroke-dashoffset:0;stroke-opacity:1"
     d="m 170.25028,219.97929 a 14.599259,14.599259 0 0 1 -14.59926,14.59926 14.599259,14.599259 0 0 1 -14.59926,-14.59926 14.599259,14.599259 0 0 1 14.59926,-14.59926 14.599259,14.599259 0 0 1 14.59926,14.59926 z"
     id="circle884" />
  <path
     style="fill:#808080;fill-opacity:1;fill-rule:nonzero;stroke:#000000;stroke-width:1.60528636;stroke-linecap:round;stroke-linejoin:round;stroke-miterlimit:4;stroke-dasharray:none;stroke-dashoffset:0;stroke-opacity:1"
     d="m 199.44878,219.97929 a 14.599259,14.599259 0 0 1 -14.59926,14.59926 14.599259,14.599259 0 0 1 -14.59926,-14.59926 14.599259,14.599259 0 0 1 14.59926,-14.59926 14.599259,14.599259 0 0 1 14.59926,14.59926 z"
     id="circle886" />
  <path
     style="fill:#808080;fill-opacity:1;fill-rule:nonzero;stroke:#000000;stroke-width:1.60528636;stroke-linecap:round;stroke-linejoin:round;stroke-miterlimit:4;stroke-dasharray:none;stroke-dashoffset:0;stroke-opacity:1"
     d="m 228.64731,219.97929 a 14.599259,14.599259 0 0 1 -14.59926,14.59926 14.599259,14.599259 0 0 1 -14.59926,-14.59926 14.599259,14.599259 0 0 1 14.59926,-14.59926 14.599259,14.599259 0 0 1 14.59926,14.59926 z"
     id="circle888" />
  <path
     style="fill:#000000;fill-opacity:1;fill-rule:nonzero;stroke:none;stroke-width:1.60528636;stroke-linecap:round;stroke-linejoin:round;stroke-miterlimit:4;stroke-dasharray:none;stroke-dashoffset:0;stroke-opacity:1"
     d="m 257.8458,219.97929 a 14.599259,14.599259 0 0 1 -14.59926,14.59926 14.599259,14.599259 0 0 1 -14.59926,-14.59926 14.599259,14.599259 0 0 1 14.59926,-14.59926 14.599259,14.599259 0 0 1 14.59926,14.59926 z"
     id="circle890" />
  <path
     style="fill:#000000;fill-opacity:1;fill-rule:nonzero;stroke:none;stroke-width:1.60528636;stroke-linecap:round;stroke-linejoin:round;stroke-miterlimit:4;stroke-dasharray:none;stroke-dashoffset:0;stroke-opacity:1"
     d="m 53.456182,249.17781 a 14.599259,14.599259 0 0 1 -14.59926,14.59926 14.599259,14.599259 0 0 1 -14.599259,-14.59926 14.599259,14.599259 0 0 1 14.599259,-14.59926 14.599259,14.599259 0 0 1 14.59926,14.59926 z"
     id="circle892" />
  <path
     style="fill:#000000;fill-opacity:1;fill-rule:nonzero;stroke:none;stroke-width:1.60528636;stroke-linecap:round;stroke-linejoin:round;stroke-miterlimit:4;stroke-dasharray:none;stroke-dashoffset:0;stroke-opacity:1"
     d="M 82.65471,249.17781 A 14.599259,14.599259 0 0 1 68.05545,263.77707 14.599259,14.599259 0 0 1 53.456191,249.17781 14.599259,14.599259 0 0 1 68.05545,234.57855 14.599259,14.599259 0 0 1 82.65471,249.17781 Z"
     id="circle894" />
  <path
     style="fill:#000000;fill-opacity:1;fill-rule:nonzero;stroke:none;stroke-width:1.60528636;stroke-linecap:round;stroke-linejoin:round;stroke-miterlimit:4;stroke-dasharray:none;stroke-dashoffset:0;stroke-opacity:1"
     d="m 141.05173,249.17781 a 14.599259,14.599259 0 0 1 -14.59926,14.59926 14.599259,14.599259 0 0 1 -14.59926,-14.59926 14.599259,14.599259 0 0 1 14.59926,-14.59926 14.599259,14.599259 0 0 1 14.59926,14.59926 z"
     id="circle898" />
  <path
     style="fill:#808080;fill-opacity:1;fill-rule:nonzero;stroke:#000000;stroke-width:1.60528636;stroke-linecap:round;stroke-linejoin:round;stroke-miterlimit:4;stroke-dasharray:none;stroke-dashoffset:0;stroke-opacity:1"
     d="m 199.44878,249.17781 a 14.599259,14.599259 0 0 1 -14.59926,14.59926 14.599259,14.599259 0 0 1 -14.59926,-14.59926 14.599259,14.599259 0 0 1 14.59926,-14.59926 14.599259,14.599259 0 0 1 14.59926,14.59926 z"
     id="circle902" />
  <path
     style="fill:#808080;fill-opacity:1;fill-rule:nonzero;stroke:#000000;stroke-width:1.60528636;stroke-linecap:round;stroke-linejoin:round;stroke-miterlimit:4;stroke-dasharray:none;stroke-dashoffset:0;stroke-opacity:1"
     d="m 228.64731,249.17781 a 14.599259,14.599259 0 0 1 -14.59926,14.59926 14.599259,14.599259 0 0 1 -14.59926,-14.59926 14.599259,14.599259 0 0 1 14.59926,-14.59926 14.599259,14.599259 0 0 1 14.59926,14.59926 z"
     id="circle904" />
  <path
     style="fill:#000000;fill-opacity:1;fill-rule:nonzero;stroke:none;stroke-width:1.60528636;stroke-linecap:round;stroke-linejoin:round;stroke-miterlimit:4;stroke-dasharray:none;stroke-dashoffset:0;stroke-opacity:1"
     d="m 257.8458,249.17781 a 14.599259,14.599259 0 0 1 -14.59926,14.59926 14.599259,14.599259 0 0 1 -14.59926,-14.59926 14.599259,14.599259 0 0 1 14.59926,-14.59926 14.599259,14.599259 0 0 1 14.59926,14.59926 z"
     id="circle906" />
  <path
     style="fill:#000000;fill-opacity:1;fill-rule:nonzero;stroke:none;stroke-width:1.60528636;stroke-linecap:round;stroke-linejoin:round;stroke-miterlimit:4;stroke-dasharray:none;stroke-dashoffset:0;stroke-opacity:1"
     d="m 53.456182,278.37631 a 14.599259,14.599259 0 0 1 -14.59926,14.59926 14.599259,14.599259 0 0 1 -14.599259,-14.59926 14.599259,14.599259 0 0 1 14.599259,-14.59926 14.599259,14.599259 0 0 1 14.59926,14.59926 z"
     id="circle908" />
  <path
     style="fill:#ffffff;fill-opacity:1;fill-rule:nonzero;stroke:#000000;stroke-width:1.60528636;stroke-linecap:round;stroke-linejoin:round;stroke-miterlimit:4;stroke-dasharray:none;stroke-dashoffset:0;stroke-opacity:1"
     d="M 111.85323,278.37631 A 14.599259,14.599259 0 0 1 97.253967,292.97557 14.599259,14.599259 0 0 1 82.654708,278.37631 14.599259,14.599259 0 0 1 97.253967,263.77705 14.599259,14.599259 0 0 1 111.85323,278.37631 Z"
     id="circle912" />
  <path
     style="fill:#ffffff;fill-opacity:1;fill-rule:nonzero;stroke:#000000;stroke-width:1.60528636;stroke-linecap:round;stroke-linejoin:round;stroke-miterlimit:4;stroke-dasharray:none;stroke-dashoffset:0;stroke-opacity:1"
     d="m 141.05173,278.37631 a 14.599259,14.599259 0 0 1 -14.59926,14.59926 14.599259,14.599259 0 0 1 -14.59926,-14.59926 14.599259,14.599259 0 0 1 14.59926,-14.59926 14.599259,14.599259 0 0 1 14.59926,14.59926 z"
     id="circle914" />
  <path
     style="fill:#ffffff;fill-opacity:1;fill-rule:nonzero;stroke:#000000;stroke-width:1.60528636;stroke-linecap:round;stroke-linejoin:round;stroke-miterlimit:4;stroke-dasharray:none;stroke-dashoffset:0;stroke-opacity:1"
     d="m 199.44878,278.37631 a 14.599259,14.599259 0 0 1 -14.59926,14.59926 14.599259,14.599259 0 0 1 -14.59926,-14.59926 14.599259,14.599259 0 0 1 14.59926,-14.59926 14.599259,14.599259 0 0 1 14.59926,14.59926 z"
     id="circle918" />
  <path
     style="fill:#000000;fill-opacity:1;fill-rule:nonzero;stroke:none;stroke-width:1.60528636;stroke-linecap:round;stroke-linejoin:round;stroke-miterlimit:4;stroke-dasharray:none;stroke-dashoffset:0;stroke-opacity:1"
     d="m 257.8458,278.37631 a 14.599259,14.599259 0 0 1 -14.59926,14.59926 14.599259,14.599259 0 0 1 -14.59926,-14.59926 14.599259,14.599259 0 0 1 14.59926,-14.59926 14.599259,14.599259 0 0 1 14.59926,14.59926 z"
     id="circle922" />
  <path
     style="fill:#000000;fill-opacity:1;fill-rule:nonzero;stroke:none;stroke-width:1.60528636;stroke-linecap:round;stroke-linejoin:round;stroke-miterlimit:4;stroke-dasharray:none;stroke-dashoffset:0;stroke-opacity:1"
     d="m 53.456182,307.57483 a 14.599259,14.599259 0 0 1 -14.59926,14.59926 14.599259,14.599259 0 0 1 -14.599259,-14.59926 14.599259,14.599259 0 0 1 14.599259,-14.59926 14.599259,14.599259 0 0 1 14.59926,14.59926 z"
     id="circle924" />
  <path
     style="fill:#ffffff;fill-opacity:1;fill-rule:nonzero;stroke:#000000;stroke-width:1.60528636;stroke-linecap:round;stroke-linejoin:round;stroke-miterlimit:4;stroke-dasharray:none;stroke-dashoffset:0;stroke-opacity:1"
     d="M 82.65471,307.57483 A 14.599259,14.599259 0 0 1 68.05545,322.17409 14.599259,14.599259 0 0 1 53.456191,307.57483 14.599259,14.599259 0 0 1 68.05545,292.97557 14.599259,14.599259 0 0 1 82.65471,307.57483 Z"
     id="circle926" />
  <path
     style="fill:#ffffff;fill-opacity:1;fill-rule:nonzero;stroke:#000000;stroke-width:1.60528636;stroke-linecap:round;stroke-linejoin:round;stroke-miterlimit:4;stroke-dasharray:none;stroke-dashoffset:0;stroke-opacity:1"
     d="M 111.85323,307.57483 A 14.599259,14.599259 0 0 1 97.253967,322.17409 14.599259,14.599259 0 0 1 82.654708,307.57483 14.599259,14.599259 0 0 1 97.253967,292.97557 14.599259,14.599259 0 0 1 111.85323,307.57483 Z"
     id="circle928" />
  <path
     style="fill:#ffffff;fill-opacity:1;fill-rule:nonzero;stroke:#000000;stroke-width:1.60528636;stroke-linecap:round;stroke-linejoin:round;stroke-miterlimit:4;stroke-dasharray:none;stroke-dashoffset:0;stroke-opacity:1"
     d="m 170.25028,307.57483 a 14.599259,14.599259 0 0 1 -14.59926,14.59926 14.599259,14.599259 0 0 1 -14.59926,-14.59926 14.599259,14.599259 0 0 1 14.59926,-14.59926 14.599259,14.599259 0 0 1 14.59926,14.59926 z"
     id="circle932" />
  <path
     style="fill:#ffffff;fill-opacity:1;fill-rule:nonzero;stroke:#000000;stroke-width:1.60528636;stroke-linecap:round;stroke-linejoin:round;stroke-miterlimit:4;stroke-dasharray:none;stroke-dashoffset:0;stroke-opacity:1"
     d="m 199.44878,307.57483 a 14.599259,14.599259 0 0 1 -14.59926,14.59926 14.599259,14.599259 0 0 1 -14.59926,-14.59926 14.599259,14.599259 0 0 1 14.59926,-14.59926 14.599259,14.599259 0 0 1 14.59926,14.59926 z"
     id="circle934" />
  <path
     style="fill:#ffffff;fill-opacity:1;fill-rule:nonzero;stroke:#000000;stroke-width:1.60528636;stroke-linecap:round;stroke-linejoin:round;stroke-miterlimit:4;stroke-dasharray:none;stroke-dashoffset:0;stroke-opacity:1"
     d="m 228.64731,307.57483 a 14.599259,14.599259 0 0 1 -14.59926,14.59926 14.599259,14.599259 0 0 1 -14.59926,-14.59926 14.599259,14.599259 0 0 1 14.59926,-14.59926 14.599259,14.599259 0 0 1 14.59926,14.59926 z"
     id="circle936" />
  <path
     style="fill:#000000;fill-opacity:1;fill-rule:nonzero;stroke:none;stroke-width:1.60528636;stroke-linecap:round;stroke-linejoin:round;stroke-miterlimit:4;stroke-dasharray:none;stroke-dashoffset:0;stroke-opacity:1"
     d="m 257.8458,307.57483 a 14.599259,14.599259 0 0 1 -14.59926,14.59926 14.599259,14.599259 0 0 1 -14.59926,-14.59926 14.599259,14.599259 0 0 1 14.59926,-14.59926 14.599259,14.599259 0 0 1 14.59926,14.59926 z"
     id="circle938" />
  <path
     style="fill:#000000;fill-opacity:1;fill-rule:nonzero;stroke:none;stroke-width:2.81907725;stroke-linecap:round;stroke-linejoin:round;stroke-miterlimit:4;stroke-dasharray:none;stroke-dashoffset:0;stroke-opacity:1"
     d="M 142.51531,47.704918 A 25.638067,25.638067 0 0 1 116.87724,73.342985 25.638067,25.638067 0 0 1 91.239176,47.704918 25.638067,25.638067 0 0 1 116.87724,22.066851 25.638067,25.638067 0 0 1 142.51531,47.704918 Z"
     id="circle940" />
  <path
     style="fill:#808080;fill-opacity:1;fill-rule:nonzero;stroke:#000000;stroke-width:2.81907725;stroke-linecap:round;stroke-linejoin:round;stroke-miterlimit:4;stroke-dasharray:none;stroke-dashoffset:0;stroke-opacity:1"
     d="M 193.7914,47.704918 A 25.638067,25.638067 0 0 1 168.15334,73.342985 25.638067,25.638067 0 0 1 142.51527,47.704918 25.638067,25.638067 0 0 1 168.15334,22.066851 25.638067,25.638067 0 0 1 193.7914,47.704918 Z"
     id="circle942" />
  <path
     style="fill:#ffffff;fill-opacity:1;fill-rule:nonzero;stroke:#000000;stroke-width:2.81907725;stroke-linecap:round;stroke-linejoin:round;stroke-miterlimit:4;stroke-dasharray:none;stroke-dashoffset:0;stroke-opacity:1"
     d="M 245.06759,47.704918 A 25.638067,25.638067 0 0 1 219.42952,73.342985 25.638067,25.638067 0 0 1 193.79145,47.704918 25.638067,25.638067 0 0 1 219.42952,22.066851 25.638067,25.638067 0 0 1 245.06759,47.704918 Z"
     id="circle944" />
  <g
     aria-label="E"
     style="font-style:normal;font-variant:normal;font-weight:bold;font-stretch:normal;font-size:42.66666794px;line-height:1.25;font-family:sans-serif;-inkscape-font-specification:'sans-serif Bold';text-align:center;writing-mode:lr-tb;direction:ltr;text-anchor:middle;fill:#000000;fill-opacity:1;fill-rule:nonzero;stroke:none;stroke-width:2;stroke-linecap:round;stroke-linejoin:round;stroke-miterlimit:4;stroke-dasharray:none;stroke-dashoffset:0;stroke-opacity:1"
     id="text948">
    <path
       d="m 179.37209,63.215336 h -22.4375 V 32.194502 h 22.4375 v 6 h -14.47917 v 5.354167 h 13.4375 v 6 h -13.4375 v 7.666667 h 14.47917 z"
       style=""
       id="path1001" />
  </g>
  <g
     aria-label="G"
     style="font-style:normal;font-variant:normal;font-weight:bold;font-stretch:normal;font-size:42.66666794px;line-height:1.25;font-family:sans-serif;-inkscape-font-specification:'sans-serif Bold';text-align:center;writing-mode:lr-tb;direction:ltr;text-anchor:middle;fill:#000000;fill-opacity:1;fill-rule:nonzero;stroke:none;stroke-width:2;stroke-linecap:round;stroke-linejoin:round;stroke-miterlimit:4;stroke-dasharray:none;stroke-dashoffset:0;stroke-opacity:1"
     id="text952">
    <path
       d="m 234.05451,61.423667 q -2.08333,0.8125 -5.52083,1.625 -3.4375,0.791666 -6.85417,0.791666 -7.91666,0 -12.39583,-4.291666 -4.47917,-4.312501 -4.47917,-11.895834 0,-7.229167 4.52084,-11.645834 4.52083,-4.4375 12.60416,-4.4375 3.0625,0 5.83334,0.5625 2.77083,0.541667 6.16666,2.1875 v 7.270834 h -0.89583 q -0.58333,-0.4375 -1.70833,-1.229167 -1.125,-0.8125 -2.16667,-1.375 -1.20833,-0.666667 -2.83333,-1.145833 -1.60417,-0.479167 -3.41667,-0.479167 -2.125,0 -3.85417,0.625 -1.72916,0.625 -3.10416,1.916667 -1.3125,1.25 -2.08334,3.1875 -0.75,1.916666 -0.75,4.4375 0,5.145833 2.72917,7.875 2.72917,2.729167 8.0625,2.729167 0.45833,0 1,-0.02083 0.5625,-0.02083 1.02083,-0.0625 v -6.083333 h -6.1875 v -5.854167 h 14.3125 z"
       style=""
       id="path1004" />
  </g>
  <g
     aria-label="P"
     style="font-style:normal;font-variant:normal;font-weight:bold;font-stretch:normal;font-size:42.66666794px;line-height:1.25;font-family:sans-serif;-inkscape-font-specification:'sans-serif Bold';text-align:center;writing-mode:lr-tb;direction:ltr;text-anchor:middle;fill:#ffffff;fill-opacity:1;fill-rule:nonzero;stroke:none;stroke-width:2;stroke-linecap:round;stroke-linejoin:round;stroke-miterlimit:4;stroke-dasharray:none;stroke-dashoffset:0;stroke-opacity:1"
     id="text956">
    <path
       d="m 129.67933,41.986169 q 0,2.083333 -0.72917,4.083333 -0.72916,1.979167 -2.08333,3.333333 -1.85417,1.833334 -4.14583,2.770834 -2.27084,0.9375 -5.66667,0.9375 h -4.97917 v 10.104167 h -8 V 32.194502 h 13.16667 q 2.95833,0 4.97917,0.520833 2.04166,0.5 3.60416,1.520833 1.875,1.229167 2.85417,3.145834 1,1.916666 1,4.604167 z m -8.27083,0.1875 q 0,-1.3125 -0.70834,-2.250001 -0.70833,-0.958333 -1.64583,-1.333333 -1.25,-0.5 -2.4375,-0.541667 -1.1875,-0.0625 -3.16667,-0.0625 h -1.375 v 9.291667 h 2.29167 q 2.04167,0 3.35417,-0.25 1.33333,-0.25 2.22916,-1 0.77084,-0.666666 1.10417,-1.583333 0.35417,-0.9375 0.35417,-2.270833 z"
       style=""
       id="path1007" />
  </g>
</svg>
